<svg id="Layer_1" data-name="Layer 1" xmlns="http://www.w3.org/2000/svg" width="156.54" height="39.71" viewBox="0 0 156.54 39.71"><defs><style>.cls-1{fill:#fff;}.cls-2{fill:#fffeff;}.cls-3{fill:#efefef;}</style></defs><title>UA Logo white</title><path class="cls-1" d="M26.75,3.72c10.14,0,18.38,7.79,18.38,17.35S36.89,38.43,26.75,38.43,8.37,30.64,8.37,21.07,16.61,3.72,26.75,3.72m0-2.5c-11.53,0-20.88,8.89-20.88,19.85s9.35,19.85,20.88,19.85S47.63,32,47.63,21.07,38.28,1.22,26.75,1.22h0Z" transform="translate(-0.5 -1.22)"/><path class="cls-2" d="M21.05,20l0-.14a0.54,0.54,0,0,0,.09-0.43l0-.19a0.18,0.18,0,0,0,.05-0.19l0.06-.4a0.17,0.17,0,0,0,0-.18l0-.34a0.2,0.2,0,0,0,.06-0.24c0-.28.09-0.57,0.14-0.85,0.12-.73.28-1.45,0.37-2.18,0.05-.41.14-0.82,0.21-1.23l0.22-1.2c0-.16.06-0.32,0.1-0.48a0.46,0.46,0,0,1,.29,0h4.33l0.2,0a0.66,0.66,0,0,1,0,.32,0.2,0.2,0,0,0-.06.24l0,0.34a0.19,0.19,0,0,0-.05.24l-0.06.39a0.44,0.44,0,0,0-.07.33,1.05,1.05,0,0,0-.07.58l0,0.2a0.46,0.46,0,0,0-.06.37l0,0.19a0.15,0.15,0,0,0-.05.19l0,0.34a0.21,0.21,0,0,0-.07.23l-0.05.34a0.22,0.22,0,0,0-.05.24v0.09a0.1,0.1,0,0,0,0,.16v0.09a0.14,0.14,0,0,0,0,.19l0,0.19a0.48,0.48,0,0,0-.08.38v0.14a0.56,0.56,0,0,0-.09.43l0,0.14a0.16,0.16,0,0,0,0,.17l0,0.34a0.14,0.14,0,0,0-.05.19L26,19.37a0.16,0.16,0,0,0,0,.18l0,0.34c-0.08.07-.08,0.07,0,0.17l0,0.14a0.64,0.64,0,0,0-.1.45l0,0.14a0.15,0.15,0,0,0,0,.17l-0.07.35a0.16,0.16,0,0,0,0,.17l0,0.34a0.14,0.14,0,0,0,0,.19l0,0.14a0.06,0.06,0,0,0,0,.1v0.09a0.14,0.14,0,0,0-.05.19l0,0.14a0.14,0.14,0,0,0,0,.17l-0.06.44a0.15,0.15,0,0,0,0,.18l-0.07.35a0.1,0.1,0,0,0,0,.12l0,0.29a0.14,0.14,0,0,0-.06.18l0,0.24a0.14,0.14,0,0,0-.06.18l0,0.29a0.14,0.14,0,0,0-.06.18,6.8,6.8,0,0,1-.37,1.14,9,9,0,0,1-.69,1.32,6.48,6.48,0,0,1-1.62,1.75,5.18,5.18,0,0,1-.9.57l-0.19.08a0.12,0.12,0,0,0-.13.06l-0.13,0a0.11,0.11,0,0,0-.13.06l-0.18.05a0.1,0.1,0,0,0-.13.06l-0.13,0a0.11,0.11,0,0,0-.13,0l-0.15,0c-0.05,0-.09,0-0.11,0l-0.29.05a0.19,0.19,0,0,0-.24.06,7.18,7.18,0,0,1-1.37.09H17.26a5.84,5.84,0,0,1-2.71-.65,5.09,5.09,0,0,1-2.24-2.26,6.24,6.24,0,0,1-.4-1.13,8.91,8.91,0,0,1-.25-1.35,4.16,4.16,0,0,1,0-.57c0-.41,0-0.82,0-1.22a9.87,9.87,0,0,1,.16-1.34c0-.14,0-0.27.07-0.41a0.11,0.11,0,0,0,0-.17c0-.24.09-0.47,0.13-0.71s0-.22,0-0.34l0-.11,0.07-.39a0.15,0.15,0,0,0,0-.19l0.28-1.61c0-.11,0-0.22,0-0.34a0.16,0.16,0,0,0,0-.19l0.07-.39a0.15,0.15,0,0,0,0-.19L13,15.28a0.16,0.16,0,0,0,0-.19l0.07-.39a0.15,0.15,0,0,0,0-.19l0.14-.88c-0.09-.11-0.13-0.12-0.28,0l-0.15,0-0.94,0-1,.07-0.52,0-0.83,0-1.09.1L7.63,14,7.09,14l-1.19.12a0.29,0.29,0,0,0-.29.05l-0.44.06a0.15,0.15,0,0,0-.19,0l-1.7.36c-0.26.06-.52,0.14-0.78,0.22a1.51,1.51,0,0,0-.27.15H2.16a2.79,2.79,0,0,0-1,.6A0.6,0.6,0,0,0,.94,16c-0.06.06-.06,0.07,0,0.13a0.38,0.38,0,0,1,0,.27,1.63,1.63,0,0,1-.35-0.57A0.1,0.1,0,0,0,.5,15.73v-1a0.15,0.15,0,0,0,.1-0.11l0.16-.36a1.31,1.31,0,0,1,.35-0.45,3,3,0,0,1,.66-0.46A5.77,5.77,0,0,1,3,12.91a16.23,16.23,0,0,1,1.64-.28l1.19-.16,1.24-.15,1.16-.13,0.62,0a0.28,0.28,0,0,0,.29,0L10.07,12,10.85,12c0.29,0,.57,0,0.86,0h6.61l0,0.15c0,0.3-.09.6-0.15,0.9-0.12.66-.23,1.32-0.35,2l-0.39,2.21c-0.13.71-.27,1.42-0.37,2.13s-0.24,1.4-.35,2.11c-0.07.42-.16,0.84-0.23,1.26a4.62,4.62,0,0,0,0,1.86,2.06,2.06,0,0,0,.4.84,0.83,0.83,0,0,0,.34.27l0.51,0.19a0.09,0.09,0,0,0,.12,0l0.3,0a0.06,0.06,0,0,0,.1,0l0.3,0a0.1,0.1,0,0,0,.14,0,1.68,1.68,0,0,0,1-.76,0.11,0.11,0,0,0,.09-0.12L20,24.68a0.21,0.21,0,0,0,.11-0.24l0.15-.39a0.15,0.15,0,0,0,.06-0.18l0.06-.23a0.11,0.11,0,0,0,0-.14l0.06-.23a0.15,0.15,0,0,0,.06-0.18l0-.09a0.39,0.39,0,0,0,.07-0.37V22.49a0.14,0.14,0,0,0,0-.19L20.7,22a0.26,0.26,0,0,0,.07-0.28l0-.34a0.15,0.15,0,0,0,.05-0.19V21A0.56,0.56,0,0,0,21,20.57l0-.14A0.45,0.45,0,0,0,21.05,20Z" transform="translate(-0.5 -1.22)"/><path class="cls-2" d="M47,28.26l0.64-.08c0.42,0,.84-0.1,1.26-0.18s0.92-.16,1.38-0.25a6.44,6.44,0,0,0,1.12-.33h0.09a5,5,0,0,0,.89-0.46,1.88,1.88,0,0,0,.37-0.32,0.46,0.46,0,0,0,.11-0.5,1.18,1.18,0,0,1,0-.15A0.19,0.19,0,0,1,53,26a1.64,1.64,0,0,1,.35,1,3.05,3.05,0,0,0,0,.31,1.14,1.14,0,0,1-.25.73c-0.06.08-.12,0.15-0.18,0.23a1.61,1.61,0,0,1-.58.51,5.51,5.51,0,0,1-1.3.53c-0.48.12-1,.25-1.45,0.32l-1,.15L47,30l-1.45.13-0.85.09-1,.07-0.41,0a8.39,8.39,0,0,1-.86.06l-0.83.07h-2.8l-2,0-0.19,0a0.81,0.81,0,0,1,0-.15c0-.29,0-0.57,0-0.86s0-.61,0-0.91c0-.14,0-0.28,0-0.42s0-.26,0-0.39a1.15,1.15,0,0,0,0-.58,0.16,0.16,0,0,0-.05-0.06l0-1.05c0-.11,0-0.22,0-0.33s0-.38,0-0.57a0.2,0.2,0,0,0-.06-0.17l0-.67a3.42,3.42,0,0,0,0-.56,6.2,6.2,0,0,1,0-.69,0.73,0.73,0,0,0,0-.17c0-.39,0-0.78-0.06-1.17s0-.62,0-0.93,0-.52,0-0.78a1.43,1.43,0,0,0,0-.58,0.31,0.31,0,0,0-.06-0.11c0-.09,0-0.17,0-0.26,0-.35,0-0.69,0-1a0.84,0.84,0,0,0,0-.1c0-.19,0-0.38,0-0.57a0.41,0.41,0,0,0,0-.12l-0.05-.7a0.38,0.38,0,0,0-.07.08c-0.09.22-.18,0.43-0.27,0.65-0.19.5-.37,1-0.56,1.49-0.28.71-.56,1.41-0.84,2.11-0.2.51-.42,1-0.6,1.53-0.43,1.24-1,2.42-1.42,3.65-0.1.27-.19,0.54-0.29,0.81s-0.16.4-.24,0.61l-1.12,2.79-0.09.25a2.67,2.67,0,0,1-.63,0H29.62l-2.17,0-2,0-0.17,0a0.84,0.84,0,0,1,0-.15l0.33-.71c0.28-.6.57-1.19,0.86-1.79,0.13-.27.23-0.54,0.35-0.81l0.22-.47,0.53-1.11c0.27-.58.56-1.16,0.81-1.75s0.64-1.39,1-2.08,0.6-1.26.86-1.9l0.05-.12,0.59-1.22c0.28-.59.57-1.17,0.82-1.78s0.65-1.39,1-2.08,0.57-1.19.82-1.81a5.31,5.31,0,0,1,.32-0.64c0.27,0,4.16-.06,5.48,0l0.39,0a0.85,0.85,0,0,1,.06.18c0,0.39.07,0.78,0.11,1.17s0.06,0.59.09,0.88,0,0.5.07,0.75,0,0.41.07,0.62,0,0.23,0,.34c0,0.28,0,.55.05,0.83s0.06,0.6.09,0.91,0,0.42.06,0.62,0.07,0.71.1,1.06,0,0.59.08,0.88,0.09,0.84.14,1.27c0,0.24,0,.48.07,0.73s0.06,0.62.09,0.93l0.11,1.14c0,0.32.07,0.64,0.1,1s0,0.43.05,0.65,0.07,0.66.1,1,0.08,0.9.12,1.35c0,0.13,0,.26,0,0.39a0.11,0.11,0,0,0,.12.11l0.6,0,0.42,0,0.81-.06,1.14-.1,1-.07a4.47,4.47,0,0,0,.47,0,6.91,6.91,0,0,1,.83-0.06A0.4,0.4,0,0,0,47,28.26Z" transform="translate(-0.5 -1.22)"/><path class="cls-3" d="M0.94,16a0.6,0.6,0,0,1,.23-0.36,2.79,2.79,0,0,1,1-.6H2.24a0.25,0.25,0,0,1,0,.05,0.31,0.31,0,0,0,.19.38,4.66,4.66,0,0,0,.88.39,17.34,17.34,0,0,0,2.31.6l0.93,0.2,0.2,0a0.15,0.15,0,0,1,0,.17l-0.24,1,0,0.17-0.09.36a2.32,2.32,0,0,1-.55-0.1c-0.18,0-.35-0.07-0.53-0.11l-0.12,0L4.38,18a0.2,0.2,0,0,0-.19,0A9.82,9.82,0,0,1,3,17.67l-0.17-.06A4.65,4.65,0,0,1,1.6,17a5.4,5.4,0,0,1-.51-0.4A0.33,0.33,0,0,1,1,16.38a0.38,0.38,0,0,0,0-.27V16Z" transform="translate(-0.5 -1.22)"/><path class="cls-3" d="M52.88,26a1.18,1.18,0,0,0,0,.15,0.46,0.46,0,0,1-.11.5,1.88,1.88,0,0,1-.37.32,5,5,0,0,1-.89.46l-0.06,0a0.13,0.13,0,0,1,.07-0.13,0.13,0.13,0,0,0,0-.18c0-.07,0-0.13-0.07-0.15a2.58,2.58,0,0,0-.77-0.38,12.72,12.72,0,0,0-2-.56l-1.32-.25H47.28V25.39L47.48,24a0.26,0.26,0,0,1,0-.08,2.43,2.43,0,0,1,.55.08l0.16,0,0.36,0.07,0.12,0L49,24.22a0.18,0.18,0,0,0,.19,0l0.29,0.08,0.14,0,0.28,0.07,0.14,0,0.86,0.26,0.32,0.11a0.13,0.13,0,0,0,.14.06l0.13,0a0.12,0.12,0,0,0,.13.06c0.24,0.11.49,0.22,0.73,0.35a2.49,2.49,0,0,1,.42.34,0.42,0.42,0,0,1,.06.16c0,0.06,0,.12.08,0.12h0Z" transform="translate(-0.5 -1.22)"/><g id="Layer_3" data-name="Layer 3"><path class="cls-1" d="M65.82,20.12A4.78,4.78,0,0,1,62.39,19a4.35,4.35,0,0,1-1.15-3.29,9.94,9.94,0,0,1,.32-2.4L63.89,4a6.28,6.28,0,0,0-1.79.77,5.66,5.66,0,0,0-1.31,1.13A4.56,4.56,0,0,0,60,7.31a4.43,4.43,0,0,0-.27,1.51A4.35,4.35,0,0,0,60.32,11a3,3,0,0,1-2-.63,2.28,2.28,0,0,1-.72-1.82,3.65,3.65,0,0,1,.32-1.49,5.41,5.41,0,0,1,.9-1.39,7.3,7.3,0,0,1,1.38-1.2,9.79,9.79,0,0,1,1.76-.94,11.26,11.26,0,0,1,2-.62,10.85,10.85,0,0,1,2.21-.22l0.68,0a4.55,4.55,0,0,1,.6.09L64.67,13.39a12.86,12.86,0,0,0-.29,1.34,7.3,7.3,0,0,0-.1,1.13q0,2.18,1.79,2.18,2.54,0,3.55-4.72L71.9,2.75h3.23L72.89,13.32a9.6,9.6,0,0,1-2.51,5.08A6.33,6.33,0,0,1,65.82,20.12Z" transform="translate(-0.5 -1.22)"/><path class="cls-1" d="M86.58,15.86a10,10,0,0,1-1,2.25,5.34,5.34,0,0,1-1.12,1.28,3,3,0,0,1-1.11.58,4.16,4.16,0,0,1-1,.13A3.26,3.26,0,0,1,81,19.88a2.19,2.19,0,0,1-.83-0.58,2.25,2.25,0,0,1-.45-0.83,3.31,3.31,0,0,1-.14-1,6.73,6.73,0,0,1,.16-1.36q0.16-.78.35-1.59T80.5,13a6.39,6.39,0,0,0,.16-1.31q0-1.17-.83-1.17a1.07,1.07,0,0,0-.58.17,1.92,1.92,0,0,0-.49.45,3.34,3.34,0,0,0-.4.67,6.43,6.43,0,0,0-.31.82L76.49,20h-3.3L75.62,8.52h3.3L78.67,9.7A4.2,4.2,0,0,1,79.4,9a3.4,3.4,0,0,1,.71-0.39,3,3,0,0,1,.65-0.18,4,4,0,0,1,.58,0,3.44,3.44,0,0,1,1,.15A2,2,0,0,1,83.7,9.83,3.27,3.27,0,0,1,83.89,11a6.38,6.38,0,0,1-.08,1q-0.08.53-.21,1.08t-0.26,1.1l-0.26,1.05q-0.12.5-.21,0.93a4,4,0,0,0-.08.75,1.14,1.14,0,0,0,.2.69,0.84,0.84,0,0,0,.72.27,1.38,1.38,0,0,0,.65-0.15,1.65,1.65,0,0,0,.5-0.41,3.24,3.24,0,0,0,.41-0.64q0.18-.37.36-0.82h1Z" transform="translate(-0.5 -1.22)"/><path class="cls-1" d="M92.69,15.86A9.28,9.28,0,0,1,92,17.47a6.62,6.62,0,0,1-.83,1.15,4.54,4.54,0,0,1-.88.76,4.48,4.48,0,0,1-.88.45,4,4,0,0,1-.81.21,4.87,4.87,0,0,1-.69.06,2.88,2.88,0,0,1-1-.16,2,2,0,0,1-.78-0.49,2.35,2.35,0,0,1-.52-0.85,3.61,3.61,0,0,1-.19-1.24,5.75,5.75,0,0,1,0-.69q0-.37.13-0.81l1.55-7.34h3.3l-1.64,7.78a2,2,0,0,0-.07.37c0,0.12,0,.24,0,0.36a0.82,0.82,0,0,0,.22.67,1.1,1.1,0,0,0,.7.18,1.51,1.51,0,0,0,.65-0.15,2.09,2.09,0,0,0,.59-0.42,3,3,0,0,0,.48-0.64,4.07,4.07,0,0,0,.35-0.81h1ZM91.28,5.48a1.74,1.74,0,0,1-.15.71,1.76,1.76,0,0,1-.4.57,1.92,1.92,0,0,1-.58.38,1.87,1.87,0,0,1-1.42,0,1.85,1.85,0,0,1-.58-0.38,1.72,1.72,0,0,1-.39-0.57,1.87,1.87,0,0,1,0-1.42,1.86,1.86,0,0,1,.39-0.58,1.83,1.83,0,0,1,.58-0.4,1.8,1.8,0,0,1,1.42,0,1.89,1.89,0,0,1,1,1A1.74,1.74,0,0,1,91.28,5.48Z" transform="translate(-0.5 -1.22)"/><path class="cls-1" d="M93.29,8.52h3.3l-1.64,7.78c0,0.17-.07.33-0.09,0.46a2.28,2.28,0,0,0,0,.36,0.8,0.8,0,0,0,.18.55,0.76,0.76,0,0,0,.6.21,1.75,1.75,0,0,0,1.07-.39,4.36,4.36,0,0,0,1-1A9.15,9.15,0,0,0,98.42,15,14.05,14.05,0,0,0,99,13.33a14.6,14.6,0,0,0,.39-1.66,8.6,8.6,0,0,0,.14-1.44,0.22,0.22,0,0,1-.12.1l-0.21.07-0.22,0H98.83a0.62,0.62,0,0,1-.36-0.11,0.91,0.91,0,0,1-.26-0.27,1.22,1.22,0,0,1-.16-0.37A1.69,1.69,0,0,1,98,9.3a1.22,1.22,0,0,1,.34-0.89,1.45,1.45,0,0,1,1.08-.35,1.22,1.22,0,0,1,1.13.61,2,2,0,0,1,.24.64,3.67,3.67,0,0,1,.07.74,15,15,0,0,1-.65,4.24,14,14,0,0,1-.86,2.16A8.29,8.29,0,0,1,98.1,18.3a5.9,5.9,0,0,1-1.67,1.3,4.46,4.46,0,0,1-2.1.49,3,3,0,0,1-2.05-.66,2.56,2.56,0,0,1-.75-2c0-.13,0-0.29,0-0.49a5,5,0,0,1,.09-0.62Z" transform="translate(-0.5 -1.22)"/><path class="cls-1" d="M110.78,15.86a13.09,13.09,0,0,1-1.1,1.56,8.27,8.27,0,0,1-1.4,1.35,6.92,6.92,0,0,1-1.72,1,5.75,5.75,0,0,1-2.07.36,4.93,4.93,0,0,1-1.48-.21,2.92,2.92,0,0,1-1.13-.64,2.81,2.81,0,0,1-.72-1.12,4.84,4.84,0,0,1-.25-1.66,10.08,10.08,0,0,1,.13-1.52,11.75,11.75,0,0,1,.42-1.77,10.07,10.07,0,0,1,.77-1.78,7,7,0,0,1,1.16-1.56A5.36,5.36,0,0,1,105,8.73a5,5,0,0,1,2.09-.42,3.6,3.6,0,0,1,1.26.18,2,2,0,0,1,.77.49,1.61,1.61,0,0,1,.39.7,3.15,3.15,0,0,1,.11.82,4,4,0,0,1-.44,1.85A5,5,0,0,1,108,13.85a6,6,0,0,1-1.68,1,6.21,6.21,0,0,1-2,.46c0,0.17,0,.33,0,0.49s0,0.3,0,.43a3.6,3.6,0,0,0,.11,1,1.35,1.35,0,0,0,.31.59,1.1,1.1,0,0,0,.51.3,2.75,2.75,0,0,0,.72.08,4,4,0,0,0,1.24-.18,4.31,4.31,0,0,0,1-.49,5.82,5.82,0,0,0,.91-0.74q0.43-.42.87-0.91h0.78Zm-6.25-1.62a3.07,3.07,0,0,0,1.25-.37,3.81,3.81,0,0,0,1.06-.84,4.18,4.18,0,0,0,.73-1.18,3.59,3.59,0,0,0,.27-1.38,1.59,1.59,0,0,0-.12-0.68,0.45,0.45,0,0,0-.45-0.26,1.22,1.22,0,0,0-.85.42,4.82,4.82,0,0,0-.79,1.09,9.38,9.38,0,0,0-.65,1.51A13.42,13.42,0,0,0,104.53,14.24Z" transform="translate(-0.5 -1.22)"/><path class="cls-1" d="M109.12,20l2.43-11.44h3.3l-0.29,1.42,0.62-.52A4.7,4.7,0,0,1,115.82,9a3.92,3.92,0,0,1,.71-0.32,2.47,2.47,0,0,1,.78-0.12A1.51,1.51,0,0,1,118.5,9a1.58,1.58,0,0,1,.3.55,2.1,2.1,0,0,1,.1.65,1.84,1.84,0,0,1-.1.6,1.56,1.56,0,0,1-.31.53,1.62,1.62,0,0,1-.52.39,1.66,1.66,0,0,1-.73.15,0.92,0.92,0,0,1-.5-0.11,0.76,0.76,0,0,1-.26-0.28,1.33,1.33,0,0,1-.13-0.36c0-.13-0.05-0.25-0.08-0.36a1,1,0,0,0-.12-0.28,0.26,0.26,0,0,0-.24-0.11,1.55,1.55,0,0,0-.88.24,6.7,6.7,0,0,0-.78.63L112.42,20h-3.3Z" transform="translate(-0.5 -1.22)"/><path class="cls-1" d="M128.3,15.86a11.55,11.55,0,0,1-1.79,1.72,17.62,17.62,0,0,1-1.71,1.15,3.64,3.64,0,0,1-.8.64,4.8,4.8,0,0,1-.92.42,5.43,5.43,0,0,1-1,.24,6.33,6.33,0,0,1-.92.07,3.85,3.85,0,0,1-1.49-.26,3.13,3.13,0,0,1-1-.68,2.66,2.66,0,0,1-.61-0.94,3,3,0,0,1-.2-1,2.51,2.51,0,0,1,.11-0.74,2.62,2.62,0,0,1,.27-0.61,2.13,2.13,0,0,1,.39-0.46,1.9,1.9,0,0,1,.45-0.31,27.79,27.79,0,0,0,1.62-3.4q0.66-1.68,1.2-3.38l3.39-.45q0.07,1.49.13,2.58t0.12,1.89q0.06,0.8.1,1.36c0,0.37.06,0.7,0.08,1s0,0.55.06,0.78,0,0.48,0,.73,0,0.33,0,.47a2,2,0,0,1-.07.4q0.5-.29.91-0.58a7.7,7.7,0,0,0,.73-0.58h1Zm-9.22.83a1.9,1.9,0,0,0,.32,1.2,1.31,1.31,0,0,0,1.08.4,2.56,2.56,0,0,0,.74-0.11,1.64,1.64,0,0,0,.64-0.36,1.78,1.78,0,0,0,.45-0.65,2.63,2.63,0,0,0,.17-1q0-.29,0-0.56t0-.58q0-.31-0.06-0.69l-0.09-.88q0-.5-0.11-1.16T122,10.74a19.37,19.37,0,0,1-.82,2.17q-0.47,1.05-1,2.16a1.24,1.24,0,0,1,.37.31,0.75,0.75,0,0,1,.15.48,1.29,1.29,0,0,1-.07.41,1.13,1.13,0,0,1-.2.36,1,1,0,0,1-.32.26,0.9,0.9,0,0,1-.42.1,1.12,1.12,0,0,1-.36-0.06A0.44,0.44,0,0,1,119.08,16.68Z" transform="translate(-0.5 -1.22)"/><path class="cls-1" d="M140.34,15.86a10.2,10.2,0,0,1-.7,1.61,6.78,6.78,0,0,1-.79,1.15,4.46,4.46,0,0,1-.83.76,4.06,4.06,0,0,1-.83.45,3.56,3.56,0,0,1-.77.21,4.53,4.53,0,0,1-.67.06,2.19,2.19,0,0,1-1.55-.53,2.44,2.44,0,0,1-.7-1.57,9,9,0,0,1-.62.77,4.59,4.59,0,0,1-.75.67,3.83,3.83,0,0,1-.92.48,3.27,3.27,0,0,1-1.12.18,3.47,3.47,0,0,1-1.14-.19,2.48,2.48,0,0,1-1-.63,3.16,3.16,0,0,1-.68-1.14,5.06,5.06,0,0,1-.26-1.72,9.74,9.74,0,0,1,.16-1.68,10.66,10.66,0,0,1,.48-1.79,10.21,10.21,0,0,1,.81-1.72,6.89,6.89,0,0,1,1.14-1.45,5.22,5.22,0,0,1,1.48-1,4.36,4.36,0,0,1,1.82-.37,2.36,2.36,0,0,1,1.41.33,1,1,0,0,1,.44.83V9.73L135,8.52h3.3l-1.64,7.78a2.3,2.3,0,0,0-.08.37,3.07,3.07,0,0,0,0,.36,0.85,0.85,0,0,0,.94,1,1.18,1.18,0,0,0,.62-0.17,2,2,0,0,0,.52-0.46,3.15,3.15,0,0,0,.41-0.69,6,6,0,0,0,.3-0.83h1Zm-5.77-5.16a1,1,0,0,0-.2-0.54,0.86,0.86,0,0,0-.29-0.23,1,1,0,0,0-.46-0.1,1.53,1.53,0,0,0-.91.31,3.41,3.41,0,0,0-.79.83,6.63,6.63,0,0,0-.64,1.18,11.16,11.16,0,0,0-.47,1.36,11,11,0,0,0-.3,1.37,8.29,8.29,0,0,0-.1,1.21,3.28,3.28,0,0,0,.12,1,1.38,1.38,0,0,0,.3.53,0.69,0.69,0,0,0,.37.21l0.36,0a1.32,1.32,0,0,0,.54-0.13,2,2,0,0,0,.55-0.38,2.79,2.79,0,0,0,.48-0.63,3.14,3.14,0,0,0,.33-0.88Z" transform="translate(-0.5 -1.22)"/><path class="cls-1" d="M141.78,4.35l3.39-.46-2.63,12.36a2.31,2.31,0,0,0-.08.35,2.22,2.22,0,0,0,0,.32,1,1,0,0,0,.2.65,0.88,0.88,0,0,0,.74.26,1.77,1.77,0,0,0,.47,0l0.27-.1a2.79,2.79,0,0,1-.27,1.07,2.4,2.4,0,0,1-.58.75,2.3,2.3,0,0,1-.78.44,2.75,2.75,0,0,1-.88.15,2.81,2.81,0,0,1-1-.16,2,2,0,0,1-.78-0.5,2.39,2.39,0,0,1-.52-0.87,3.72,3.72,0,0,1-.19-1.26,5.66,5.66,0,0,1,0-.68q0-.37.13-0.81Z" transform="translate(-0.5 -1.22)"/><path class="cls-1" d="M66.63,38.32L68.39,30a9,9,0,0,0-1.59-.58,9.71,9.71,0,0,0-1.47-.25q-0.65,1.4-1.19,2.87T63.2,34.93q-0.4,1.39-.62,2.61a11.93,11.93,0,0,0-.22,2.11,2.77,2.77,0,0,0,.1.83,1.45,1.45,0,0,0,.22.44q-0.46,0-1,0a2.74,2.74,0,0,1-1-.27,1.9,1.9,0,0,1-.77-0.72,2.62,2.62,0,0,1-.31-1.39,8.45,8.45,0,0,1,.24-1.82,18.85,18.85,0,0,1,.69-2.29q0.45-1.22,1.06-2.56T63,29.19a6.12,6.12,0,0,0-1.77.33,1.47,1.47,0,0,0-.91.85,0.32,0.32,0,0,1,.2.23,1.14,1.14,0,0,1,.11.49,0.74,0.74,0,0,1-.37.65,1.65,1.65,0,0,1-.91.24,1.77,1.77,0,0,1-.56-0.08,1.3,1.3,0,0,1-.45-0.25,1.14,1.14,0,0,1-.3-0.41,1.43,1.43,0,0,1-.11-0.59,1.9,1.9,0,0,1,.35-1.09,3.13,3.13,0,0,1,1-.89,5.56,5.56,0,0,1,1.48-.6,7.37,7.37,0,0,1,1.86-.22q0.47,0,1.2.07a30.08,30.08,0,0,1,1.84-2.6,17.5,17.5,0,0,1,2-2.15,10.16,10.16,0,0,1,2.07-1.46,4.4,4.4,0,0,1,2-.54,6.78,6.78,0,0,1,.9.07,3.16,3.16,0,0,1,.91.26L69.93,38.32h-3.3Zm3.3-15.55a4.8,4.8,0,0,0-1,.8,9.85,9.85,0,0,0-1.05,1.23q-0.52.71-1,1.58t-1,1.83q0.69,0.13,1.41.33A12.81,12.81,0,0,1,68.6,29Z" transform="translate(-0.5 -1.22)"/><path class="cls-1" d="M85.94,34.22a10,10,0,0,1-.7,1.6,6.44,6.44,0,0,1-.79,1.12,4.21,4.21,0,0,1-.83.73,4.1,4.1,0,0,1-.83.42,3.5,3.5,0,0,1-.77.19,5.53,5.53,0,0,1-.67,0,2.28,2.28,0,0,1-1.53-.5,2.25,2.25,0,0,1-.71-1.47,7,7,0,0,1-.59.77,4.31,4.31,0,0,1-.75.67,3.86,3.86,0,0,1-.93.48,3.31,3.31,0,0,1-1.12.18,3.47,3.47,0,0,1-1.14-.19,2.49,2.49,0,0,1-1-.63,3.17,3.17,0,0,1-.68-1.14,5.06,5.06,0,0,1-.26-1.72,9.72,9.72,0,0,1,.16-1.68,10.62,10.62,0,0,1,.48-1.79,10.2,10.2,0,0,1,.81-1.72,6.88,6.88,0,0,1,1.14-1.45,5.22,5.22,0,0,1,1.48-1,4.37,4.37,0,0,1,1.82-.37A2.36,2.36,0,0,1,80,27.1a1,1,0,0,1,.44.83V28l1.12-5.26,3.39-.46L82.29,34.66a2.31,2.31,0,0,0-.08.38,3.07,3.07,0,0,0,0,.36,0.82,0.82,0,0,0,.23.67,1.13,1.13,0,0,0,.71.18,1.31,1.31,0,0,0,.62-0.15,1.76,1.76,0,0,0,.51-0.42A2.91,2.91,0,0,0,84.67,35,5.85,5.85,0,0,0,85,34.22h1Zm-6.86,0L80.2,29a1.8,1.8,0,0,0-.07-0.24A1,1,0,0,0,80,28.48a0.76,0.76,0,0,0-.27-0.21,1,1,0,0,0-.44-0.08,1.52,1.52,0,0,0-.91.31,3.38,3.38,0,0,0-.79.83,6.63,6.63,0,0,0-.64,1.18,11.44,11.44,0,0,0-.77,2.73,8.27,8.27,0,0,0-.1,1.21,3.27,3.27,0,0,0,.12,1,1.37,1.37,0,0,0,.3.53,0.68,0.68,0,0,0,.37.21,2.18,2.18,0,0,0,.36,0,1.37,1.37,0,0,0,.52-0.12,1.92,1.92,0,0,0,.55-0.35,2.59,2.59,0,0,0,.48-0.59,2.82,2.82,0,0,0,.33-0.84V34.22Z" transform="translate(-0.5 -1.22)"/><path class="cls-1" d="M86.54,26.88h3.3l-1.64,7.78c0,0.17-.07.33-0.09,0.46a2.29,2.29,0,0,0,0,.36,0.8,0.8,0,0,0,.18.55,0.77,0.77,0,0,0,.6.21,1.75,1.75,0,0,0,1.07-.39,4.35,4.35,0,0,0,1-1,9.1,9.1,0,0,0,.79-1.46,14,14,0,0,0,.61-1.67A14.66,14.66,0,0,0,92.67,30a8.6,8.6,0,0,0,.14-1.44,0.22,0.22,0,0,1-.12.1l-0.21.07-0.22,0H92.08a0.63,0.63,0,0,1-.36-0.11,0.92,0.92,0,0,1-.26-0.27,1.22,1.22,0,0,1-.16-0.37,1.69,1.69,0,0,1-.05-0.41,1.22,1.22,0,0,1,.34-0.89,1.44,1.44,0,0,1,1.08-.35A1.23,1.23,0,0,1,93.8,27a2,2,0,0,1,.24.64,3.67,3.67,0,0,1,.07.74,15,15,0,0,1-.65,4.24,14,14,0,0,1-.86,2.16,8.32,8.32,0,0,1-1.25,1.86A5.91,5.91,0,0,1,89.69,38a4.46,4.46,0,0,1-2.1.49,3,3,0,0,1-2.05-.67,2.56,2.56,0,0,1-.75-2c0-.13,0-0.29,0-0.49a5,5,0,0,1,.09-0.62Z" transform="translate(-0.5 -1.22)"/><path class="cls-1" d="M104,34.22a13.17,13.17,0,0,1-1.1,1.56,8.25,8.25,0,0,1-1.4,1.35,6.88,6.88,0,0,1-1.72,1,5.73,5.73,0,0,1-2.07.36,4.93,4.93,0,0,1-1.48-.21,2.91,2.91,0,0,1-1.13-.64,2.81,2.81,0,0,1-.72-1.12,4.83,4.83,0,0,1-.25-1.66,10.07,10.07,0,0,1,.13-1.52,11.74,11.74,0,0,1,.42-1.77,10.06,10.06,0,0,1,.77-1.78,7,7,0,0,1,1.16-1.56,5.39,5.39,0,0,1,1.6-1.11,5,5,0,0,1,2.09-.42,3.6,3.6,0,0,1,1.26.18,2,2,0,0,1,.77.49,1.61,1.61,0,0,1,.39.7,3.14,3.14,0,0,1,.11.82,4,4,0,0,1-.44,1.85,5,5,0,0,1-1.17,1.49,6,6,0,0,1-1.68,1,6.22,6.22,0,0,1-2,.46c0,0.17,0,.33,0,0.49s0,0.3,0,.43a3.6,3.6,0,0,0,.11,1,1.35,1.35,0,0,0,.31.59,1.1,1.1,0,0,0,.51.3,2.77,2.77,0,0,0,.72.08,4,4,0,0,0,1.24-.18,4.29,4.29,0,0,0,1-.49,5.79,5.79,0,0,0,.91-0.74q0.43-.42.87-0.91H104ZM97.78,32.6A3.08,3.08,0,0,0,99,32.23a3.8,3.8,0,0,0,1.06-.84,4.18,4.18,0,0,0,.73-1.18,3.59,3.59,0,0,0,.27-1.38,1.6,1.6,0,0,0-.12-0.68,0.45,0.45,0,0,0-.45-0.26,1.22,1.22,0,0,0-.85.42,4.81,4.81,0,0,0-.79,1.09,9.38,9.38,0,0,0-.65,1.51A13.4,13.4,0,0,0,97.78,32.6Z" transform="translate(-0.5 -1.22)"/><path class="cls-1" d="M115.76,34.22a10,10,0,0,1-1,2.25,5.37,5.37,0,0,1-1.12,1.28,3,3,0,0,1-1.11.58,4.16,4.16,0,0,1-1,.13,3.26,3.26,0,0,1-1.27-.22,2.2,2.2,0,0,1-.83-0.58,2.25,2.25,0,0,1-.45-0.83,3.3,3.3,0,0,1-.14-1,6.75,6.75,0,0,1,.16-1.36q0.16-.78.35-1.59t0.35-1.58a6.39,6.39,0,0,0,.16-1.31q0-1.17-.83-1.17a1.08,1.08,0,0,0-.58.17,1.92,1.92,0,0,0-.49.45,3.35,3.35,0,0,0-.4.67,6.43,6.43,0,0,0-.31.82l-1.55,7.34h-3.3l2.43-11.44h3.3l-0.25,1.18a4.24,4.24,0,0,1,.73-0.67,3.42,3.42,0,0,1,.71-0.38,3,3,0,0,1,.65-0.18,4.07,4.07,0,0,1,.58,0,3.44,3.44,0,0,1,1,.14,2,2,0,0,1,1.34,1.26,3.27,3.27,0,0,1,.19,1.17,6.38,6.38,0,0,1-.08,1q-0.08.53-.21,1.08t-0.26,1.1l-0.26,1.05q-0.12.5-.21,0.93a4,4,0,0,0-.08.75,1.15,1.15,0,0,0,.2.69,0.84,0.84,0,0,0,.72.27,1.39,1.39,0,0,0,.65-0.14,1.65,1.65,0,0,0,.5-0.41,3.24,3.24,0,0,0,.41-0.64q0.18-.37.36-0.82h1Z" transform="translate(-0.5 -1.22)"/><path class="cls-1" d="M121.87,34.22a9.28,9.28,0,0,1-.72,1.61,6.68,6.68,0,0,1-.83,1.15,4.51,4.51,0,0,1-1.76,1.21,4,4,0,0,1-.81.21,4.87,4.87,0,0,1-.69.06,2.88,2.88,0,0,1-1-.16,2,2,0,0,1-.78-0.49,2.35,2.35,0,0,1-.52-0.85,3.6,3.6,0,0,1-.19-1.24,5.73,5.73,0,0,1,0-.69c0-.25.07-0.52,0.13-0.81l1.38-6.43h-0.76l0.19-.92h0.75L117,23.72l3.39-.46-0.78,3.62H121l-0.18.92h-1.37L118,34.66a2,2,0,0,0-.07.38c0,0.12,0,.24,0,0.36a0.82,0.82,0,0,0,.22.67,1.1,1.1,0,0,0,.7.18,1.51,1.51,0,0,0,.65-0.15,2.09,2.09,0,0,0,.59-0.42,3,3,0,0,0,.48-0.64,4.08,4.08,0,0,0,.35-0.81h1Z" transform="translate(-0.5 -1.22)"/><path class="cls-1" d="M133.43,34.22a10.2,10.2,0,0,1-.7,1.61,6.84,6.84,0,0,1-.79,1.15,4.46,4.46,0,0,1-.83.76,4.14,4.14,0,0,1-.83.45,3.63,3.63,0,0,1-.77.21,4.53,4.53,0,0,1-.67.06,2.2,2.2,0,0,1-1.56-.54,2.53,2.53,0,0,1-.7-1.63,5.68,5.68,0,0,1-.88,1.13,4.2,4.2,0,0,1-.88.66,2.86,2.86,0,0,1-.85.31,4.54,4.54,0,0,1-.77.07,2.88,2.88,0,0,1-1-.16,2,2,0,0,1-.78-0.49,2.35,2.35,0,0,1-.52-0.85,3.6,3.6,0,0,1-.19-1.24,5.73,5.73,0,0,1,0-.69c0-.25.07-0.52,0.13-0.81l1.55-7.34h3.3l-1.64,7.78a3.62,3.62,0,0,0-.07.65,1.39,1.39,0,0,0,.15.67,0.55,0.55,0,0,0,.54.27,1.27,1.27,0,0,0,.61-0.15,1.78,1.78,0,0,0,.51-0.42,2.79,2.79,0,0,0,.4-0.64,6.55,6.55,0,0,0,.31-0.81l1.55-7.34h3.3l-1.64,7.78a2.31,2.31,0,0,0-.08.38,3.07,3.07,0,0,0,0,.36,0.81,0.81,0,0,0,.23.67,1.13,1.13,0,0,0,.71.18,1.31,1.31,0,0,0,.62-0.15,1.83,1.83,0,0,0,.52-0.42,2.82,2.82,0,0,0,.41-0.64,5.09,5.09,0,0,0,.3-0.81h1Z" transform="translate(-0.5 -1.22)"/><path class="cls-1" d="M131.6,38.32L134,26.88h3.3L137,28.3l0.62-.53a4.71,4.71,0,0,1,.65-0.45A4,4,0,0,1,139,27a2.46,2.46,0,0,1,.78-0.12,1.51,1.51,0,0,1,1.18.53,1.57,1.57,0,0,1,.3.55,2.1,2.1,0,0,1,.1.65,1.84,1.84,0,0,1-.1.6,1.55,1.55,0,0,1-.31.53,1.6,1.6,0,0,1-.52.39,1.66,1.66,0,0,1-.73.15,0.91,0.91,0,0,1-.5-0.11,0.75,0.75,0,0,1-.26-0.28,1.32,1.32,0,0,1-.13-0.36c0-.13-0.05-0.25-0.08-0.36a1,1,0,0,0-.12-0.28,0.26,0.26,0,0,0-.24-0.11,1.55,1.55,0,0,0-.88.24,6.71,6.71,0,0,0-.78.63l-1.83,8.69h-3.3Z" transform="translate(-0.5 -1.22)"/><path class="cls-1" d="M150.64,34.22a13.17,13.17,0,0,1-1.1,1.56,8.25,8.25,0,0,1-1.4,1.35,6.88,6.88,0,0,1-1.72,1,5.73,5.73,0,0,1-2.07.36,4.93,4.93,0,0,1-1.48-.21,2.91,2.91,0,0,1-1.13-.64,2.81,2.81,0,0,1-.72-1.12,4.83,4.83,0,0,1-.25-1.66,10.07,10.07,0,0,1,.13-1.52,11.74,11.74,0,0,1,.42-1.77,10.06,10.06,0,0,1,.77-1.78,7,7,0,0,1,1.16-1.56,5.39,5.39,0,0,1,1.6-1.11,5,5,0,0,1,2.09-.42,3.6,3.6,0,0,1,1.26.18,2,2,0,0,1,.77.49,1.61,1.61,0,0,1,.39.7,3.14,3.14,0,0,1,.11.82,4,4,0,0,1-.44,1.85,5,5,0,0,1-1.17,1.49,6,6,0,0,1-1.68,1,6.22,6.22,0,0,1-2,.46c0,0.17,0,.33,0,0.49s0,0.3,0,.43a3.6,3.6,0,0,0,.11,1,1.35,1.35,0,0,0,.31.59,1.1,1.1,0,0,0,.51.3,2.77,2.77,0,0,0,.72.08,4,4,0,0,0,1.24-.18,4.29,4.29,0,0,0,1-.49,5.79,5.79,0,0,0,.91-0.74q0.43-.42.87-0.91h0.78Zm-6.25-1.62a3.08,3.08,0,0,0,1.25-.37,3.8,3.8,0,0,0,1.06-.84,4.18,4.18,0,0,0,.73-1.18,3.59,3.59,0,0,0,.27-1.38,1.6,1.6,0,0,0-.12-0.68,0.45,0.45,0,0,0-.45-0.26,1.22,1.22,0,0,0-.85.42,4.81,4.81,0,0,0-.79,1.09,9.38,9.38,0,0,0-.65,1.51A13.4,13.4,0,0,0,144.39,32.6Z" transform="translate(-0.5 -1.22)"/><path class="cls-1" d="M156.54,26.17q0.07,1.49.13,2.58t0.12,1.89q0.06,0.8.1,1.36c0,0.37.06,0.7,0.08,1s0,0.55.06,0.78,0,0.48,0,.73a4,4,0,0,1-.21,1.34,3.43,3.43,0,0,1-.56,1,3.62,3.62,0,0,1-.82.74,4.78,4.78,0,0,1-1,.5,5.34,5.34,0,0,1-1,.27,6.24,6.24,0,0,1-1,.08,3.85,3.85,0,0,1-1.49-.26,3.13,3.13,0,0,1-1-.68,2.66,2.66,0,0,1-.61-0.94,3,3,0,0,1-.2-1,2.5,2.5,0,0,1,.11-0.74,2.6,2.6,0,0,1,.27-0.61,2.14,2.14,0,0,1,.39-0.46,1.9,1.9,0,0,1,.45-0.31A27.83,27.83,0,0,0,152,30q0.66-1.68,1.2-3.38ZM150.34,35a1.9,1.9,0,0,0,.32,1.2,1.31,1.31,0,0,0,1.08.4,2.59,2.59,0,0,0,.74-0.11,1.64,1.64,0,0,0,.64-0.36,1.77,1.77,0,0,0,.45-0.65,2.64,2.64,0,0,0,.17-1c0-.19,0-0.38,0-0.56s0-.38,0-0.58,0-.43-0.06-0.69l-0.09-.88q0-.5-0.11-1.16t-0.12-1.54a19.33,19.33,0,0,1-.82,2.17q-0.47,1.05-1,2.16a1.24,1.24,0,0,1,.37.31,0.75,0.75,0,0,1,.15.48,1.29,1.29,0,0,1-.07.41,1.12,1.12,0,0,1-.2.36,1,1,0,0,1-.32.26,0.9,0.9,0,0,1-.42.09,1.13,1.13,0,0,1-.36-0.06A0.44,0.44,0,0,1,150.34,35Z" transform="translate(-0.5 -1.22)"/></g></svg>